<mxfile host="app.diagrams.net" modified="2021-01-17T00:38:38.567Z" agent="5.0 (Windows NT 10.0; Win64; x64) AppleWebKit/537.36 (KHTML, like Gecko) Chrome/87.0.4280.141 Safari/537.36" etag="kOEoplzTrpMEXeW1MM1Y" version="14.2.4" type="github">
  <diagram id="R2lEEEUBdFMjLlhIrx00" name="Page-1">
    <mxGraphModel dx="1038" dy="1648" grid="1" gridSize="10" guides="1" tooltips="1" connect="1" arrows="1" fold="1" page="1" pageScale="1" pageWidth="850" pageHeight="1100" math="0" shadow="0" extFonts="Permanent Marker^https://fonts.googleapis.com/css?family=Permanent+Marker">
      <root>
        <mxCell id="0" />
        <mxCell id="1" parent="0" />
        <mxCell id="UW9wHYsdNZsyLZqePper-5" value="Attribute" style="ellipse;whiteSpace=wrap;html=1;align=center;" vertex="1" parent="1">
          <mxGeometry x="90" y="-960" width="100" height="40" as="geometry" />
        </mxCell>
        <mxCell id="UW9wHYsdNZsyLZqePper-6" value="Entity" style="whiteSpace=wrap;html=1;align=center;" vertex="1" parent="1">
          <mxGeometry x="130" y="-1030" width="100" height="40" as="geometry" />
        </mxCell>
        <mxCell id="UW9wHYsdNZsyLZqePper-7" value="&lt;h1&gt;ENTITY&lt;/h1&gt;&lt;h1&gt;ES&lt;/h1&gt;&lt;p&gt;Usuarios&lt;/p&gt;&lt;p&gt;Pedidos&lt;/p&gt;&lt;p&gt;Productos&lt;/p&gt;&lt;p&gt;Carrito de compras&lt;/p&gt;&lt;p&gt;Lista de deseos&lt;/p&gt;" style="text;html=1;spacing=5;spacingTop=-20;whiteSpace=wrap;overflow=hidden;rounded=1;fillColor=#f5f5f5;strokeColor=#666666;fontColor=#333333;shadow=1;sketch=0;glass=1;" vertex="1" parent="1">
          <mxGeometry x="760" y="-1080" width="140" height="520" as="geometry" />
        </mxCell>
      </root>
    </mxGraphModel>
  </diagram>
</mxfile>
